<svg xmlns="http://www.w3.org/2000/svg" width="23.906" height="23.91" viewBox="0 0 23.906 23.91">
  <g id="instagram_1_" data-name="instagram (1)" transform="translate(-0.449 0)">
    <path id="Tracé_8" data-name="Tracé 8" d="M24.294,7.03a8.737,8.737,0,0,0-.556-2.9,6.125,6.125,0,0,0-3.5-3.5,8.759,8.759,0,0,0-2.9-.556C16.059.014,15.652,0,12.406,0S8.753.014,7.478.07a8.739,8.739,0,0,0-2.9.556A5.834,5.834,0,0,0,2.457,2.009,5.887,5.887,0,0,0,1.079,4.124a8.76,8.76,0,0,0-.556,2.9C.463,8.3.449,8.711.449,11.958s.014,3.653.07,4.928a8.736,8.736,0,0,0,.556,2.9,6.124,6.124,0,0,0,3.5,3.5,8.761,8.761,0,0,0,2.9.556c1.275.056,1.682.07,4.928.07s3.653-.014,4.928-.07a8.735,8.735,0,0,0,2.9-.556,6.116,6.116,0,0,0,3.5-3.5,8.766,8.766,0,0,0,.556-2.9c.056-1.275.07-1.682.07-4.928s0-3.653-.061-4.928ZM22.14,16.792a6.554,6.554,0,0,1-.411,2.219,3.966,3.966,0,0,1-2.27,2.27,6.577,6.577,0,0,1-2.219.411c-1.261.056-1.639.07-4.83.07s-3.573-.014-4.83-.07a6.55,6.55,0,0,1-2.219-.411,3.679,3.679,0,0,1-1.373-.892A3.717,3.717,0,0,1,3.1,19.015,6.578,6.578,0,0,1,2.686,16.8c-.056-1.261-.07-1.64-.07-4.83s.014-3.573.07-4.83A6.55,6.55,0,0,1,3.1,4.919a3.634,3.634,0,0,1,.9-1.373,3.712,3.712,0,0,1,1.373-.892,6.581,6.581,0,0,1,2.219-.411c1.261-.056,1.64-.07,4.83-.07s3.573.014,4.83.07a6.554,6.554,0,0,1,2.219.411,3.677,3.677,0,0,1,1.373.892,3.717,3.717,0,0,1,.892,1.373,6.58,6.58,0,0,1,.411,2.219c.056,1.261.07,1.639.07,4.83s-.014,3.564-.07,4.825Zm0,0" fill="#fff"/>
    <path id="Tracé_9" data-name="Tracé 9" d="M131.091,124.5a6.142,6.142,0,1,0,6.142,6.142A6.144,6.144,0,0,0,131.091,124.5Zm0,10.127a3.984,3.984,0,1,1,3.984-3.984A3.985,3.985,0,0,1,131.091,134.627Zm0,0" transform="translate(-118.685 -118.685)" fill="#fff"/>
    <path id="Tracé_10" data-name="Tracé 10" d="M365.318,90.036a1.434,1.434,0,1,1-1.434-1.434A1.434,1.434,0,0,1,365.318,90.036Zm0,0" transform="translate(-345.092 -84.463)" fill="#fff"/>
  </g>
</svg>
