<svg xmlns="http://www.w3.org/2000/svg" width="22.76" height="18.492" viewBox="0 0 22.76 18.492">
  <path id="twitter_1_" data-name="twitter (1)" d="M22.76,50.189a9.728,9.728,0,0,1-2.689.737,4.64,4.64,0,0,0,2.053-2.579,9.325,9.325,0,0,1-2.959,1.129,4.666,4.666,0,0,0-8.071,3.191,4.8,4.8,0,0,0,.108,1.064,13.207,13.207,0,0,1-9.618-4.881,4.667,4.667,0,0,0,1.434,6.236A4.608,4.608,0,0,1,.91,54.512v.051a4.687,4.687,0,0,0,3.738,4.585,4.657,4.657,0,0,1-1.223.154,4.125,4.125,0,0,1-.883-.08,4.71,4.71,0,0,0,4.36,3.25,9.375,9.375,0,0,1-5.785,1.99A8.741,8.741,0,0,1,0,64.4a13.136,13.136,0,0,0,7.158,2.094,13.189,13.189,0,0,0,13.28-13.278c0-.206-.007-.405-.017-.6A9.308,9.308,0,0,0,22.76,50.189Z" transform="translate(0 -48)" fill="#fff"/>
</svg>
